<svg width="131" height="22" viewBox="0 0 131 22" fill="none" xmlns="http://www.w3.org/2000/svg">
<path d="M18.632 6.7912C17.842 5.26814 16.6254 4.01003 15.1298 3.17454L18.2946 0H21.8503V3.56302L18.632 6.7912Z" fill="#112F4B"/>
<path d="M0 3.56305V3.05176e-05H3.55575L6.65893 3.10955C5.15195 3.92391 3.91587 5.16251 3.10317 6.67257L0 3.56305Z" fill="#112F4B"/>
<path d="M18.2946 21.895L15.0146 18.6083C16.5216 17.7956 17.7593 16.557 18.572 15.047L21.8488 18.3304V21.8934H18.293L18.2946 21.895Z" fill="#112F4B"/>
<path d="M0 21.8951V18.332L3.16644 15.1591C4.00185 16.6578 5.25901 17.8785 6.77735 18.6685L3.55575 21.8934H0V21.8951Z" fill="#112F4B"/>
<path d="M10.8409 15.7475C8.14974 15.7475 5.95984 13.5564 5.95984 10.863C5.95984 8.16962 8.14974 5.97198 10.8409 5.97198C13.532 5.97198 15.7155 8.16637 15.7155 10.863C15.7155 13.5597 13.5288 15.7475 10.8409 15.7475Z" fill="#ED1C24"/>
<path d="M57.9562 15.8548H50.7035C50.3337 15.8548 49.9281 15.7898 49.4902 15.6581C49.0505 15.5281 48.645 15.3135 48.2703 15.0145C47.8972 14.7154 47.5841 14.3269 47.3343 13.849C47.0845 13.3711 46.9596 12.7859 46.9596 12.0919V8.46383C46.9596 8.21026 46.9888 7.94205 47.0472 7.65922C47.1056 7.37802 47.1964 7.09681 47.3197 6.81886C47.443 6.5409 47.602 6.27432 47.7982 6.02075C47.9945 5.76718 48.2297 5.54286 48.5088 5.35106C48.7861 5.15925 49.1073 5.00483 49.4707 4.8878C49.834 4.77077 50.2461 4.71225 50.7051 4.71225H57.9578V7.39265H50.7051C50.3548 7.39265 50.0887 7.48205 49.9087 7.66085C49.727 7.83965 49.6361 8.11435 49.6361 8.48496V12.0935C49.6361 12.4446 49.7286 12.7128 49.9135 12.8981C50.0985 13.0834 50.3694 13.1761 50.7262 13.1761H57.9578V15.8565L57.9562 15.8548Z" fill="#112F4B"/>
<path d="M72.0511 8.4021C72.0511 8.77271 71.9862 9.1742 71.8548 9.60332C71.7251 10.0324 71.5142 10.4323 71.2222 10.7997C70.9302 11.167 70.5506 11.4742 70.0802 11.7229C69.6098 11.97 69.0388 12.0935 68.3672 12.0935H63.5429V9.54643H68.3672C68.7306 9.54643 69.0112 9.43427 69.2107 9.21158C69.4103 8.98889 69.5092 8.71094 69.5092 8.38097C69.5092 8.02987 69.3973 7.75516 69.175 7.55686C68.9528 7.35692 68.6835 7.25777 68.3672 7.25777H63.5429C63.1796 7.25777 62.8973 7.36993 62.6994 7.59262C62.4999 7.81693 62.4009 8.09326 62.4009 8.42323V12.1651C62.4009 12.5227 62.5129 12.8006 62.7351 13.0005C62.9573 13.2005 63.2347 13.2996 63.564 13.2996H68.3688V15.8565H63.5446C63.1747 15.8565 62.774 15.7915 62.3458 15.6598C61.9175 15.5298 61.5185 15.3185 61.1519 15.0259C60.7853 14.7333 60.4787 14.3529 60.2305 13.8815C59.9839 13.4102 59.8607 12.838 59.8607 12.1651V8.4021C59.8607 8.03149 59.9255 7.63 60.0569 7.20088C60.1867 6.77176 60.3976 6.37189 60.6896 6.00453C60.9816 5.63718 61.3611 5.32997 61.8316 5.08127C62.3004 4.8342 62.8714 4.71066 63.5446 4.71066H68.3688C68.7387 4.71066 69.1394 4.77568 69.5676 4.90734C69.9959 5.03738 70.3933 5.24869 70.7615 5.54128C71.1281 5.83386 71.4347 6.21422 71.6829 6.68561C71.9295 7.15699 72.0527 7.72916 72.0527 8.4021H72.0511Z" fill="#112F4B"/>
<path d="M78.7375 15.8548H77.5436C77.1592 15.8548 76.7488 15.7898 76.314 15.6581C75.8793 15.5281 75.4721 15.3135 75.0942 15.0144C74.7162 14.7154 74.4047 14.3269 74.1582 13.849C73.9116 13.3711 73.7883 12.7859 73.7883 12.0919V0H76.4633V12.0919C76.4633 12.4218 76.5654 12.6851 76.7715 12.8802C76.9775 13.0753 77.2338 13.1744 77.5436 13.1744H78.7375V15.8548Z" fill="#112F4B"/>
<path d="M90.1672 7.39091H85.4971V15.8547H82.7913V7.39091H79.3134V4.71052H82.7913V1.07272H85.4971V4.71214H90.1672V7.39254V7.39091Z" fill="#ED1C24"/>
<path d="M103.85 8.4021C103.85 8.77271 103.785 9.1742 103.654 9.60332C103.524 10.0324 103.313 10.4323 103.021 10.7997C102.729 11.167 102.35 11.4742 101.879 11.7229C101.409 11.97 100.838 12.0935 100.166 12.0935H95.3419V9.54643H100.166C100.53 9.54643 100.81 9.43427 101.01 9.21158C101.209 8.98889 101.308 8.71094 101.308 8.38097C101.308 8.02987 101.196 7.75516 100.974 7.55686C100.752 7.35692 100.482 7.25777 100.166 7.25777H95.3419C94.9785 7.25777 94.6963 7.36993 94.4984 7.59262C94.2988 7.81693 94.1999 8.09326 94.1999 8.42323V12.1651C94.1999 12.5227 94.3118 12.8006 94.5341 13.0005C94.7563 13.2005 95.0337 13.2996 95.363 13.2996H100.168V15.8565H95.3435C94.9737 15.8565 94.573 15.7915 94.1447 15.6598C93.7165 15.5298 93.3174 15.3185 92.9508 15.0259C92.5842 14.7333 92.2777 14.3529 92.0295 13.8815C91.7829 13.4102 91.6596 12.838 91.6596 12.1651V8.4021C91.6596 8.03149 91.7245 7.63 91.8559 7.20088C91.9857 6.77176 92.1965 6.37189 92.4885 6.00453C92.7805 5.63718 93.1601 5.32997 93.6305 5.08127C94.0993 4.8342 94.6703 4.71066 95.3435 4.71066H100.168C100.538 4.71066 100.938 4.77568 101.367 4.90734C101.795 5.03738 102.192 5.24869 102.56 5.54128C102.927 5.83386 103.234 6.21422 103.482 6.68561C103.728 7.15699 103.852 7.72916 103.852 8.4021H103.85Z" fill="#ED1C24"/>
<path d="M116.422 15.8548H109.169C108.799 15.8548 108.394 15.7898 107.956 15.6581C107.516 15.5281 107.111 15.3135 106.736 15.0145C106.363 14.7154 106.05 14.3269 105.8 13.849C105.55 13.3711 105.425 12.7859 105.425 12.0919V8.46383C105.425 8.21026 105.454 7.94205 105.513 7.65922C105.571 7.37802 105.662 7.09681 105.785 6.81886C105.909 6.5409 106.068 6.27432 106.264 6.02075C106.46 5.76718 106.695 5.54286 106.974 5.35106C107.252 5.15925 107.573 5.00483 107.936 4.8878C108.3 4.77077 108.712 4.71225 109.171 4.71225H116.423V7.39265H109.171C108.82 7.39265 108.554 7.48205 108.374 7.66085C108.193 7.83965 108.102 8.11435 108.102 8.48496V12.0935C108.102 12.4446 108.194 12.7128 108.379 12.8981C108.564 13.0834 108.835 13.1761 109.192 13.1761H116.423V15.8565L116.422 15.8548Z" fill="#ED1C24"/>
<path d="M121.35 15.8548H118.675V0H121.35V15.8548ZM131 15.8548H128.325V8.46381C128.325 8.11271 128.236 7.84776 128.057 7.66408C127.879 7.48203 127.611 7.391 127.254 7.391H122.429V4.7106H127.254C127.508 4.7106 127.775 4.73986 128.057 4.79838C128.338 4.8569 128.619 4.94792 128.896 5.07146C129.173 5.19499 129.44 5.35429 129.693 5.55097C129.946 5.74765 130.169 5.98334 130.361 6.26293C130.552 6.54088 130.706 6.86272 130.823 7.22683C130.94 7.59093 130.998 8.0038 130.998 8.46381V15.8548H131Z" fill="#ED1C24"/>
<path d="M45.7852 4.71055L40.9804 9.96731L46.3919 15.8531H42.7096L39.1506 11.9666L35.5916 15.8531H31.8979L37.2997 9.94618L32.516 4.70892H36.1788L39.1311 7.93548L42.1045 4.70892H45.7884L45.7852 4.71055Z" fill="#112F4B"/>
</svg>
